<svg width="16" height="12" viewBox="0 0 16 12" fill="none" xmlns="http://www.w3.org/2000/svg">
<mask id="mask0_304_659" style="mask-type:luminance" maskUnits="userSpaceOnUse" x="0" y="0" width="16" height="12">
<path d="M16 0H0V11.5556H16V0Z" fill="white"/>
</mask>
<g mask="url(#mask0_304_659)">
<path d="M13.1156 4.84857V8.23708C13.4623 7.97459 13.8919 7.81949 14.3571 7.81949C14.8282 7.81949 15.2623 7.97907 15.6104 8.24603V4.84857C15.6104 3.6092 15.1778 2.56669 14.3111 1.69421C13.4563 0.823218 12.4193 0.38623 11.1896 0.38623C9.9363 0.38623 8.87707 0.833658 7.99856 1.75089C7.13337 0.833658 6.06077 0.38623 4.80744 0.38623C3.60003 0.38623 2.55115 0.821726 1.68596 1.69421C0.822257 2.5652 0.388184 3.6092 0.388184 4.84857V11.0201C0.388184 11.1021 0.45485 11.1692 0.536331 11.1692H2.7467C2.82819 11.1692 2.89485 11.1021 2.89485 11.0201V4.84857C2.89485 4.31017 3.08892 3.85081 3.45337 3.47199C3.84003 3.09316 4.28448 2.90972 4.80892 2.90972C5.34374 2.90972 5.80003 3.09316 6.17633 3.47199C6.55263 3.85081 6.73485 4.30868 6.73485 4.84857V11.0201C6.73485 11.1021 6.80152 11.1692 6.88299 11.1692H9.11559C9.1971 11.1692 9.26377 11.1021 9.26377 11.0201V4.84857C9.26377 4.31017 9.45781 3.85081 9.83408 3.47199C10.2104 3.09316 10.6652 2.90972 11.1896 2.90972C11.7245 2.90972 12.1807 3.09316 12.5452 3.47199C12.9334 3.85081 13.1156 4.30868 13.1156 4.84857Z" fill="#01203A"/>
<path d="M13.1052 9.90748C13.1052 9.21103 13.6667 8.64575 14.3586 8.64575C15.0504 8.64575 15.6119 9.21103 15.6119 9.90748C15.6119 10.604 15.0504 11.1693 14.3586 11.1693C13.6667 11.1693 13.1052 10.604 13.1052 9.90748Z" fill="#69C27A"/>
</g>
</svg>
