<svg width="7" height="7" viewBox="0 0 7 7" fill="none" xmlns="http://www.w3.org/2000/svg">
<path d="M3.19368 0.729032C1.9641 0.969009 0.973253 1.95737 0.730799 3.18324C0.273106 5.49642 2.35994 7.2208 3.93218 6.97711C4.44183 6.89794 4.6917 6.30171 4.45791 5.84278C4.17216 5.28119 4.58037 4.62558 5.21124 4.62558H6.19714C6.63999 4.62558 6.99872 4.25943 6.99996 3.81782C6.99377 1.86831 5.2199 0.334429 3.19368 0.729032ZM1.854 4.62558C1.63505 4.62558 1.45816 4.44869 1.45816 4.22974C1.45816 4.01079 1.63505 3.8339 1.854 3.8339C2.07295 3.8339 2.24985 4.01079 2.24985 4.22974C2.24985 4.44869 2.07295 4.62558 1.854 4.62558ZM2.24985 3.04222C2.0309 3.04222 1.854 2.86533 1.854 2.64638C1.854 2.42743 2.0309 2.25054 2.24985 2.25054C2.4688 2.25054 2.64569 2.42743 2.64569 2.64638C2.64569 2.86533 2.4688 3.04222 2.24985 3.04222ZM3.83322 2.25054C3.61427 2.25054 3.43737 2.07365 3.43737 1.8547C3.43737 1.63575 3.61427 1.45886 3.83322 1.45886C4.05217 1.45886 4.22906 1.63575 4.22906 1.8547C4.22906 2.07365 4.05217 2.25054 3.83322 2.25054ZM5.41659 3.04222C5.19764 3.04222 5.02075 2.86533 5.02075 2.64638C5.02075 2.42743 5.19764 2.25054 5.41659 2.25054C5.63554 2.25054 5.81243 2.42743 5.81243 2.64638C5.81243 2.86533 5.63554 3.04222 5.41659 3.04222Z" fill="#9251F7"/>
</svg>
