<svg width="24" height="24" viewBox="0 0 24 24" fill="none" xmlns="http://www.w3.org/2000/svg">
<path fill-rule="evenodd" clip-rule="evenodd" d="M21.1509 0H2.85295C2.09697 -6.86547e-07 1.3719 0.300047 0.836984 0.834243C0.302067 1.36844 0.00104216 2.0931 2.33203e-05 2.84908V21.1201C-0.00149538 21.4957 0.071177 21.868 0.21387 22.2154C0.356563 22.5629 0.566467 22.8788 0.831537 23.1449C1.09661 23.411 1.41162 23.6222 1.75851 23.7663C2.1054 23.9104 2.47733 23.9846 2.85295 23.9846H21.1509C21.5262 23.9841 21.8977 23.9095 22.2442 23.7652C22.5906 23.6209 22.9052 23.4096 23.1698 23.1435C23.4345 22.8774 23.644 22.5617 23.7865 22.2145C23.9289 21.8673 24.0015 21.4954 24 21.1201V2.84908C23.999 2.09377 23.6985 1.36969 23.1644 0.8356C22.6303 0.301514 21.9062 0.00101726 21.1509 0ZM10.3505 17.2752C10.35 17.4007 10.3247 17.525 10.2761 17.6407C10.2275 17.7565 10.1565 17.8615 10.0672 17.9497C9.97786 18.0379 9.87201 18.1077 9.75568 18.1549C9.63935 18.2021 9.51485 18.2259 9.3893 18.2249H5.39059C5.13939 18.2239 4.89881 18.1234 4.72154 17.9454C4.54427 17.7674 4.44474 17.5264 4.44474 17.2752V5.37519C4.44474 5.12398 4.54427 4.883 4.72154 4.70501C4.89881 4.52702 5.13939 4.42651 5.39059 4.4255H9.3893C9.64087 4.42651 9.88184 4.52689 10.0597 4.70477C10.2376 4.88266 10.338 5.12363 10.339 5.37519L10.3505 17.2752ZM19.5783 11.8116C19.5783 11.9373 19.5534 12.0617 19.5049 12.1777C19.4565 12.2937 19.3855 12.3989 19.2961 12.4872C19.2067 12.5756 19.1006 12.6453 18.9841 12.6923C18.8675 12.7394 18.7428 12.7628 18.6171 12.7613H14.6184C14.3668 12.7603 14.1259 12.6599 13.948 12.482C13.7701 12.3041 13.6697 12.0631 13.6687 11.8116V5.37519C13.6697 5.12363 13.7701 4.88266 13.948 4.70477C14.1259 4.52689 14.3668 4.42651 14.6184 4.4255H18.6171C18.8683 4.42651 19.1089 4.52702 19.2861 4.70501C19.4634 4.883 19.5629 5.12398 19.5629 5.37519L19.5783 11.8116Z" fill="url(#paint0_linear_334_662)"/>
<defs>
<linearGradient id="paint0_linear_334_662" x1="3737.12" y1="1521.58" x2="3737.12" y2="0" gradientUnits="userSpaceOnUse">
<stop stop-color="#0052CC"/>
<stop offset="1" stop-color="#2684FF"/>
</linearGradient>
</defs>
</svg>
