<svg width="16" height="10" viewBox="0 0 16 10" fill="none" xmlns="http://www.w3.org/2000/svg">
<path d="M14.1633 2.1297C14.2066 2.1297 15.5028 1.32595 16 1.17731C15.686 0.375534 14.9261 -0.0787376 13.7171 0.0112794C10.5194 0.436243 9.20058 5.65095 8.28157 8.20388L6.50216 3.46542C6.47704 2.99021 6.56915 2.74319 6.7586 2.68144C5.20633 2.86042 3.62894 2.26275 2.17401 2.44069C0.849927 2.72016 0.0366348 3.49578 0 4.99571C0.24493 8.95018 5.85425 7.47536 4.44328 4.32896C4.40665 4.24313 4.30198 4.1259 4.24755 4.02018C3.79317 4.40383 3.25558 4.67621 2.67748 4.81568C3.42065 5.809 3.27934 6.52495 2.22949 6.79605C1.2414 6.78977 0.725369 6.18582 0.67094 4.99466C0.652099 3.71768 1.43818 3.10012 2.58537 2.79657C3.3097 2.7725 4.76985 2.88868 5.00327 3.49996L7.20136 9.215C7.25684 9.36363 7.14589 9.59809 7.07785 9.72684H8.59558C9.00065 7.53712 11.0323 1.2307 13.5057 1.08939C14.163 1.31967 14.1487 1.72567 14.1633 2.1297Z" fill="#00492C"/>
</svg>
